<svg xmlns="http://www.w3.org/2000/svg" viewBox="0 0 444.533 239.216"><defs><style>.b4ab453b-5278-4bc0-a7f5-d4e2f97fba4c{fill:#fff;}</style></defs><title>PRUEBARecurso 39</title><g id="bd80a830-17a9-4606-94de-010a4fdb42a0" data-name="Capa 2"><g id="b606a53b-a5bf-41d4-bbde-2d07126a0591" data-name="Capa 1"><path class="b4ab453b-5278-4bc0-a7f5-d4e2f97fba4c" d="M18,230.564q2.989-10.946,8.011-25.794H36.155v33.8h-7.05V211.126q-2.511,10.842-8.224,27.449H15.06q-6.036-18.316-8.171-27.182v27.182H0v-33.8H9.719Q14.74,218.443,18,230.564Z"/><path class="b4ab453b-5278-4bc0-a7f5-d4e2f97fba4c" d="M54.044,204.77h7.53q3.738,7.584,7.583,15.167l7.424-15.167h7.53L72.629,225.224v13.351h-7V225.224Q59.545,214.544,54.044,204.77Z"/><path class="b4ab453b-5278-4bc0-a7f5-d4e2f97fba4c" d="M125.072,234.784a14.253,14.253,0,0,1-10.414,4.432q-8.6,0-12.817-6.409A19.068,19.068,0,0,1,98.8,222.02q0-8.064,4.165-12.977,4.112-4.913,11.428-4.914,5.127,0,10.254,4.327l-2.724,4.432q-3.844-2.776-7-2.777a7.647,7.647,0,0,0-6.782,3.685,14.673,14.673,0,0,0-2.083,8.224,12.267,12.267,0,0,0,2.457,7.69,8.41,8.41,0,0,0,7,3.364q2.883,0,6.836-2.51Z"/><path class="b4ab453b-5278-4bc0-a7f5-d4e2f97fba4c" d="M144.831,238.575v-33.8h7v28.2h12.657v5.607Z"/><path class="b4ab453b-5278-4bc0-a7f5-d4e2f97fba4c" d="M192.146,204.77h5.875l12.443,33.8h-7.1q-.909-2.67-2.243-7.049H189q-.749,2.4-2.3,7.049h-7Zm2.991,9.133q-1.5,4.218-4.112,11.855h8.118Q196.63,218.389,195.137,213.9Z"/><path class="b4ab453b-5278-4bc0-a7f5-d4e2f97fba4c" d="M249.289,207.547q-.962,1.443-2.991,4.326A19.387,19.387,0,0,0,238.661,210q-4.433,0-4.432,3.311a2.9,2.9,0,0,0,1.015,2.35,16.6,16.6,0,0,0,4.218,2.082q5.769,2.244,8.305,4.86a8.735,8.735,0,0,1,2.537,6.3,9.316,9.316,0,0,1-3.9,8.011,13.308,13.308,0,0,1-7.957,2.3q-5.607,0-11.963-4.059l3.1-4.326a13.978,13.978,0,0,0,7.957,2.083q5.5,0,5.5-4.432,0-2.885-5.928-4.913-9.559-3.206-9.559-10.254a8.166,8.166,0,0,1,3.2-6.783,12.328,12.328,0,0,1,7.957-2.4A18.176,18.176,0,0,1,249.289,207.547Z"/><path class="b4ab453b-5278-4bc0-a7f5-d4e2f97fba4c" d="M288.861,207.547q-.961,1.443-2.991,4.326A19.387,19.387,0,0,0,278.233,210q-4.432,0-4.432,3.311a2.9,2.9,0,0,0,1.015,2.35,16.581,16.581,0,0,0,4.218,2.082q5.769,2.244,8.305,4.86a8.735,8.735,0,0,1,2.537,6.3,9.316,9.316,0,0,1-3.9,8.011,13.308,13.308,0,0,1-7.957,2.3q-5.607,0-11.963-4.059l3.1-4.326a13.978,13.978,0,0,0,7.957,2.083q5.5,0,5.5-4.432,0-2.885-5.928-4.913-9.561-3.206-9.56-10.254a8.167,8.167,0,0,1,3.2-6.783,12.328,12.328,0,0,1,7.957-2.4A18.178,18.178,0,0,1,288.861,207.547Z"/><path class="b4ab453b-5278-4bc0-a7f5-d4e2f97fba4c" d="M309.047,238.575v-33.8h22.109v5.608H316.043v8.011h12.6V224h-12.6v14.579Z"/><path class="b4ab453b-5278-4bc0-a7f5-d4e2f97fba4c" d="M349.581,238.575v-33.8h7v28.2h12.656v5.607Z"/><path class="b4ab453b-5278-4bc0-a7f5-d4e2f97fba4c" d="M394.547,204.77v33.8h-6.889v-33.8Z"/><path class="b4ab453b-5278-4bc0-a7f5-d4e2f97fba4c" d="M444.533,204.77l-11.109,16.556q5.876,9.4,10.9,17.249h-7.957l-7.9-13.565q-4.22,7.158-7.9,13.565h-8.117l11.535-17.356-10.04-16.449h8.118l7.156,11.749q2.243-3.576,7.209-11.749Z"/><path class="b4ab453b-5278-4bc0-a7f5-d4e2f97fba4c" d="M171.34,43.524A3.779,3.779,0,0,0,176.1,41.1,48.378,48.378,0,0,1,218.489,7.7q1.874-.144,3.777-.147c1.268,0,2.528.054,3.778.153a48.842,48.842,0,0,1,42.737,34.5,3.778,3.778,0,1,0,7.241-2.156A56.442,56.442,0,0,0,226.044.14C224.792.054,223.533,0,222.266,0s-2.526.052-3.777.135a55.909,55.909,0,0,0-49.577,38.632A3.777,3.777,0,0,0,171.34,43.524Z"/><path class="b4ab453b-5278-4bc0-a7f5-d4e2f97fba4c" d="M272.429,105.3a3.779,3.779,0,0,0-4.885,2.162,48.88,48.88,0,0,1-41.5,30.885q-1.876.149-3.778.151t-3.777-.148a48.691,48.691,0,0,1-41.855-31.834,3.777,3.777,0,1,0-7.1,2.574,56.261,56.261,0,0,0,48.957,36.826c1.252.085,2.51.137,3.777.137s2.525-.052,3.778-.138a56.477,56.477,0,0,0,48.547-35.729A3.779,3.779,0,0,0,272.429,105.3Z"/><path class="b4ab453b-5278-4bc0-a7f5-d4e2f97fba4c" d="M192.255,73.028a22.29,22.29,0,1,0-22.29,22.289A22.316,22.316,0,0,0,192.255,73.028Zm-37.025,0a14.735,14.735,0,1,1,14.735,14.734A14.752,14.752,0,0,1,155.23,73.028Z"/><path class="b4ab453b-5278-4bc0-a7f5-d4e2f97fba4c" d="M274.568,50.737a22.29,22.29,0,1,0,22.289,22.291A22.316,22.316,0,0,0,274.568,50.737Zm0,37.025A14.735,14.735,0,1,1,289.3,73.028,14.752,14.752,0,0,1,274.568,87.762Z"/><path class="b4ab453b-5278-4bc0-a7f5-d4e2f97fba4c" d="M218.489,45.086v55.246a3.778,3.778,0,1,0,7.555,0V45.086a3.778,3.778,0,0,0-7.555,0Z"/></g></g></svg>